<svg height="512pt" viewBox="-49 0 511 512" width="512pt" xmlns="http://www.w3.org/2000/svg"><path d="m410.085938 511.773438h-405.585938c-2.210938 0-4-1.792969-4-4v-116.257813c0-75.457031 61.171875-136.625 136.628906-136.625h140.332032c75.457031 0 136.625 61.167969 136.625 136.625v116.257813c0 2.207031-1.789063 4-4 4zm0 0" fill="#dcdce2"/><path d="m314.757812 260.042969c32.808594 24.957031 53.996094 64.40625 53.996094 108.808593v142.921876h41.332032c2.210937 0 4-1.792969 4-4v-116.257813c0-62.527344-42-115.242187-99.328126-131.472656zm0 0" fill="#c4c4ce"/><path d="m123.132812 120.382812v-54.988281c0-36.117187 29.277344-65.394531 65.390626-65.394531h75.40625c15.203124 0 27.527343 12.324219 27.527343 27.527344v92.855468zm0 0" fill="#607882"/><path d="m263.929688 0h-36.445313c15.203125 0 27.527344 12.324219 27.527344 27.527344v92.855468h36.445312v-92.855468c-.003906-15.203125-12.324219-27.527344-27.527343-27.527344zm0 0" fill="#495959"/><path d="m143.789062 180.984375h122.917969v93.023437h-122.917969zm0 0" fill="#ffc5b2"/><path d="m235.914062 180.984375h30.792969v93.023437h-30.792969zm0 0" fill="#ffae92"/><path d="m298.214844 112.410156h-6.757813v-7.054687c0-31.058594-25.179687-56.234375-56.234375-56.234375h-55.859375c-31.054687 0-56.230469 25.175781-56.230469 56.234375v7.054687h-6.761718c-9.527344 0-17.253906 7.726563-17.253906 17.257813v8.332031c0 14.585938 11.105468 26.574219 25.324218 27.976562 6.878906 38.519532 40.523438 67.769532 81.023438 67.769532h3.65625c40.5 0 74.148437-29.25 81.023437-67.769532 14.21875-1.402343 25.328125-13.390624 25.328125-27.976562v-8.332031c0-9.53125-7.730468-17.257813-17.257812-17.257813zm0 0" fill="#ffc5b2"/><path d="m298.214844 112.410156h-6.757813v-7.054687c0-31.058594-25.179687-56.234375-56.234375-56.234375h-34.445312c31.054687 0 56.234375 25.175781 56.234375 56.234375v46.058593c0 40.210938-28.832031 73.664063-66.941407 80.875 4.988282.945313 10.128907 1.457032 15.394532 1.457032h3.65625c40.5 0 74.148437-29.25 81.023437-67.769532 14.21875-1.402343 25.328125-13.390624 25.328125-27.976562v-8.332031c0-9.53125-7.730468-17.257813-17.257812-17.257813zm0 0" fill="#ffae92"/><path d="m182.761719 127.476562c0 6.578126-5.335938 11.914063-11.914063 11.914063s-11.914062-5.335937-11.914062-11.914063c0-6.578124 5.335937-11.914062 11.914062-11.914062s11.914063 5.335938 11.914063 11.914062zm0 0" fill="#607882"/><path d="m255.25 127.476562c0 6.578126-5.332031 11.914063-11.914062 11.914063-6.578126 0-11.910157-5.335937-11.910157-11.914063 0-6.578124 5.332031-11.914062 11.910157-11.914062 6.582031 0 11.914062 5.335938 11.914062 11.914062zm0 0" fill="#607882"/><path d="m207.292969 187.429688c-9.265625 0-17.863281-5.390626-21.910157-13.726563-1.847656-3.808594-.257812-8.394531 3.550782-10.242187 3.8125-1.851563 8.394531-.261719 10.246094 3.550781 1.519531 3.136719 4.628906 5.085937 8.113281 5.085937s6.59375-1.949218 8.113281-5.085937c1.847656-3.808594 6.433594-5.402344 10.246094-3.550781 3.808594 1.847656 5.398437 6.433593 3.550781 10.242187-4.046875 8.335937-12.644531 13.726563-21.910156 13.726563zm0 0" fill="#f486b3"/><path d="m189.085938 263.414062h38.394531v41.214844h-38.394531zm0 0" fill="#7cd2e3"/><path d="m208.1875 263.253906-18.25 39.785156-64.515625-29.59375c-2.007813-.917968-2.890625-3.292968-1.96875-5.300781l13.78125-30.042969c1.546875-3.375 5.535156-4.855468 8.90625-3.308593zm0 0" fill="#dcdce2"/><path d="m208.234375 263.253906 18.25 39.785156 59.105469-27.109374c2.007812-.921876 2.886718-3.296876 1.96875-5.304688l-13.78125-30.042969c-1.546875-3.371093-5.535156-4.851562-8.910156-3.304687zm0 0" fill="#dcdce2"/><path d="m287.519531 270.546875-13.679687-29.828125c-1.582032-3.449219-5.660156-4.960938-9.105469-3.378906l-11.027344 5.054687 18.25 39.789063 13.550781-6.21875c2.050782-.941406 2.953126-3.367188 2.011719-5.417969zm0 0" fill="#c4c4ce"/><path d="m382.398438 512h-350.210938c-2.210938 0-4-1.789062-4-4v-208.671875c0-6.746094 5.46875-12.214844 12.210938-12.214844h333.789062c6.746094 0 12.210938 5.46875 12.210938 12.214844v208.671875c0 2.210938-1.789063 4-4 4zm0 0" fill="#607882"/><g fill="#495959"><path d="m373.914062 287.113281h-27.777343v203.5c0 2.257813-1.828125 4.089844-4.085938 4.089844h-313.863281v13.207031c0 2.257813 1.832031 4.089844 4.089844 4.089844h350.035156c2.257812 0 4.085938-1.832031 4.085938-4.089844v-208.3125c0-6.894531-5.589844-12.484375-12.484376-12.484375zm0 0"/><path d="m239.390625 399.21875c0 16.089844-13.042969 29.132812-29.132813 29.132812-16.089843 0-29.136718-13.042968-29.136718-29.132812s13.046875-29.132812 29.136718-29.132812c16.089844 0 29.132813 13.042968 29.132813 29.132812zm0 0"/><path d="m287.367188 212.527344h-40.207032c-4.234375 0-7.667968-3.433594-7.667968-7.667969 0-4.230469 3.433593-7.664063 7.667968-7.664063h36.628906v-56.535156c0-4.230468 3.429688-7.664062 7.664063-7.664062 4.238281 0 7.667969 3.433594 7.667969 7.664062v60.113282c0 6.480468-5.273438 11.753906-11.753906 11.753906zm0 0"/></g><path d="m250.027344 218.148438h-13.378906c-7.457032 0-13.5-6.042969-13.5-13.5v-.597657c0-7.457031 6.042968-13.5 13.5-13.5h13.378906c7.457031 0 13.5 6.042969 13.5 13.5v.597657c0 7.457031-6.042969 13.5-13.5 13.5zm0 0" fill="#607882"/></svg>