<svg height="512" viewBox="0 0 64 64" width="512" xmlns="http://www.w3.org/2000/svg"><g id="_17-JS" data-name="17-JS"><path d="m43 1 12 12h-12z" fill="#ffed9e"/><path d="m55 13v50h-46v-62h34v12z" fill="#fdd734"/><path d="m11 9v48a4 4 0 0 0 4 4h34a4 4 0 0 0 4-4v-2.123c-42-2.588-42-45.877-42-45.877z" fill="#ffbf00"/><path d="m44 13h11v2h-11z" fill="#ffbf00"/><path d="m1 4h36v16h-36z" fill="#f2f2f2"/><path d="m9 20h26v3h-26z" fill="#e89e00"/><circle cx="32" cy="37" fill="#fff" r="2"/><path d="m30 41h3l-3 7h-2z" fill="#fff"/><path d="m23.56 16.56a3.012 3.012 0 0 1 -2.56 1.44c-3.16 0-4-1.96-4-3h1.22c.41.96 1.48 2 3.78 2a2.981 2.981 0 0 0 1.56-.44z" fill="#cdd1d6"/><path d="m23 14a1 1 0 0 1 -1 1 1 1 0 0 0 -1-1h-1v-.03l-.3.01h-.01a3 3 0 0 1 -1.25-5.54 3 3 0 0 0 2.56 4.56h1a1 1 0 0 1 1 1z" fill="#cdd1d6"/><path d="m24 11h-2c-.01-.14-.16-1-2-1a1 1 0 0 1 1-1c1.84 0 1.99.86 2 1h.78a2.522 2.522 0 0 1 .22 1z" fill="#cdd1d6"/><path d="m15 8v6a1 1 0 0 1 -1 1v-7z" fill="#cdd1d6"/><path d="m15.56 16.56a3 3 0 0 1 -5.56-1.56v-1h1a3 3 0 0 0 4.56 2.56z" fill="#cdd1d6"/><g fill="#e89e00"><path d="m43 51a5.01 5.01 0 0 1 -4 2h-1v-2h1v1h1a4.941 4.941 0 0 0 3-1z"/><path d="m43.21 43.04a2.1 2.1 0 0 0 -.21.96v3a3.012 3.012 0 0 1 -1.44 2.56 2.981 2.981 0 0 0 .44-1.56v-3a2.159 2.159 0 0 1 1.21-1.96z"/><path d="m45.94 43.33a.886.886 0 0 1 -.23.38 5.151 5.151 0 0 1 -.71.59v-.37a2.211 2.211 0 0 1 .41-.27 4.873 4.873 0 0 0 .53-.33z"/><path d="m44.28 42a2.6 2.6 0 0 0 -1.04.98 2.188 2.188 0 0 1 -1.24-1.98v-3a3.009 3.009 0 0 0 -3-3h-1v-2h1v1h1a3.009 3.009 0 0 1 3 3v3a2.194 2.194 0 0 0 1.28 2z"/><path d="m24 52v1h-1a5 5 0 0 1 -5-5v-3c-.04-.13-.26-.25-.41-.34a6.051 6.051 0 0 1 -1.3-.95 1.008 1.008 0 0 1 0-1.42 5.5 5.5 0 0 1 .77-.62.988.988 0 0 0 .23 1.04 6.051 6.051 0 0 0 1.3.95c.15.09.37.21.41.34v3a5 5 0 0 0 5 5z"/><path d="m20 34a4.941 4.941 0 0 0 -1 3v3.07a2.211 2.211 0 0 1 -.41.27c-.17.1-.37.22-.59.36v-2.7a5.01 5.01 0 0 1 2-4z"/><path d="m24 34v1h-1a2.981 2.981 0 0 0 -1.56.44 3.012 3.012 0 0 1 2.56-1.44z"/><path d="m32.82 38.82a2 2 0 1 1 -2.64-2.64 1.891 1.891 0 0 0 -.18.82 2.006 2.006 0 0 0 2 2 1.891 1.891 0 0 0 .82-.18z"/><path d="m28 48h1.43l-.43 1h-2l2-7h.71z"/></g><circle cx="32" cy="37" fill="#fff" r="1"/><path d="m55.707 12.293-12-12a1 1 0 0 0 -.707-.293h-34a1 1 0 0 0 -1 1v2h-7a1 1 0 0 0 -1 1v16a1 1 0 0 0 1 1h36a1 1 0 0 0 1-1v-16a1 1 0 0 0 -1-1h-27v-1h32v11a1 1 0 0 0 1 1h11v2h2v-3a1 1 0 0 0 -.293-.707zm-19.707 6.707h-34v-14h34zm8-15.586 8.586 8.586h-8.586z"/><path d="m8 23h2v2h-2z"/><path d="m8 27h2v29h-2z"/><path d="m54 62h-44v-4h-2v5a1 1 0 0 0 1 1h46a1 1 0 0 0 1-1v-41h-2z"/><path d="m54 18h2v2h-2z"/><path d="m22 15c-1.841 0-1.989-.857-2-1.029l-1 .029h-1c0 1.038.836 3 4 3a3 3 0 0 0 0-6h-1a1 1 0 0 1 0-2c1.841 0 1.989.857 2 1h2c0-1.038-.836-3-4-3a3 3 0 0 0 0 6h1a1 1 0 0 1 0 2z"/><path d="m14 17a3 3 0 0 0 3-3v-7h-2v7a1 1 0 0 1 -2 0v-1h-2v1a3 3 0 0 0 3 3z"/><path d="m17.293 41.293a1 1 0 0 0 0 1.414 5.83 5.83 0 0 0 1.3.95c.154.09.367.212.41.343v3a5.006 5.006 0 0 0 5 5h1v-2h-1.003a3 3 0 0 1 -3-3v-3a2.191 2.191 0 0 0 -1.281-2 2.191 2.191 0 0 0 1.281-2v-3a3 3 0 0 1 3-3h1v-2h-1a5.006 5.006 0 0 0 -5 5v3.074a2.523 2.523 0 0 1 -.413.269 5.83 5.83 0 0 0 -1.294.95z"/><path d="m43 44v3a3 3 0 0 1 -3 3h-1v2h1a5.006 5.006 0 0 0 5-5v-3.074a2.523 2.523 0 0 1 .413-.269 5.83 5.83 0 0 0 1.3-.95 1 1 0 0 0 0-1.414 5.83 5.83 0 0 0 -1.3-.95c-.154-.09-.367-.212-.41-.343v-3a5.006 5.006 0 0 0 -5-5h-1.003v2h1a3 3 0 0 1 3 3v3a2.191 2.191 0 0 0 1.281 2 2.191 2.191 0 0 0 -1.281 2z"/><circle cx="32" cy="37" r="2"/><path d="m29.038 40.726-2 7a1 1 0 0 0 .962 1.274h2a1 1 0 0 0 .919-.606l3-7a1 1 0 0 0 -.919-1.394h-3a1 1 0 0 0 -.962.726zm2.445 1.274-2.142 5h-.015l1.428-5z"/></g></svg>