<svg height="512pt" viewBox="0 -8 512 511" width="512pt" xmlns="http://www.w3.org/2000/svg"><path d="m484.917969 267.609375c0 121.183594-98.238281 219.421875-219.421875 219.421875s-219.421875-98.238281-219.421875-219.421875 98.238281-219.421875 219.421875-219.421875 219.421875 98.238281 219.421875 219.421875zm0 0" fill="#bce8f1"/><path d="m342.574219 62.121094c49.132812 40.242187 80.492187 101.371094 80.492187 169.832031 0 121.183594-98.242187 219.425781-219.425781 219.425781-27.125 0-53.09375-4.9375-77.078125-13.9375 37.835938 30.988282 86.210938 49.589844 138.933594 49.589844 121.183594 0 219.421875-98.238281 219.421875-219.421875 0-94.058594-59.1875-174.28125-142.34375-205.488281zm0 0" fill="#95dae8"/><path d="m492.703125 267.707031c0-.03125.007813-.0625.007813-.09375s-.007813-.0625-.007813-.09375c-.023437-60.65625-23.652344-117.679687-66.546875-160.570312-42.914062-42.914063-99.96875-66.546875-160.660156-66.546875-60.6875 0-117.746094 23.632812-160.660156 66.546875-42.894532 42.890625-66.523438 99.914062-66.546876 160.570312 0 .03125-.003906.0625-.003906.09375s.003906.0625.003906.09375c.023438 60.652344 23.65625 117.671875 66.546876 160.5625 42.871093 42.871094 99.855468 66.496094 160.476562 66.546875.058594 0 .121094.007813.183594.007813s.121094-.007813.183594-.007813c60.621093-.050781 117.605468-23.675781 160.476562-66.546875 42.890625-42.890625 66.523438-99.910156 66.546875-160.5625zm-15.726563-7.878906h-89.835937c-2.167969-80.949219-37.726563-155.652344-95.277344-202.214844 101.777344 12.703125 181.324219 97.960938 185.113281 202.214844zm-219.265624 0h-98.285157c2.265625-80.316406 39.183594-153.9375 98.285157-196.851563zm0 15.570313v196.988281c-59.136719-42.941407-96.058594-116.617188-98.285157-196.988281zm15.570312 0h98.285156c-2.226562 80.367187-39.148437 154.046874-98.285156 196.988281zm0-15.570313v-196.851563c59.105469 42.914063 96.019531 116.535157 98.285156 196.851563zm-34.164062-202.214844c-57.542969 46.566407-93.097657 121.269531-95.265626 202.214844h-89.835937c3.789063-104.25 83.332031-189.503906 185.101563-202.214844zm-185.101563 217.785157h89.832031c2.128906 80.898437 37.605469 155.578124 95.0625 202.179687-101.667968-12.796875-181.101562-98.003906-184.894531-202.179687zm238.066406 202.183593c57.453125-46.605469 92.933594-121.285156 95.0625-202.183593h89.832031c-3.792968 104.175781-83.226562 189.382812-184.894531 202.183593zm0 0" fill="#7cd2e3"/><path d="m239.703125 76.589844c0 31.394531-42.457031 90.457031-63.941406 118.335937-6.144531 7.972657-18.152344 7.972657-24.296875 0-21.484375-27.878906-63.941406-86.941406-63.941406-118.335937 0-42.023438 34.066406-76.089844 76.089843-76.089844 42.023438 0 76.089844 34.066406 76.089844 76.089844zm0 0" fill="#fc9842"/><path d="m217.925781 23.320312c2.894531 9.179688 4.460938 18.949219 4.460938 29.085938 0 36.226562-44.535157 101.480469-73.128907 139.640625.757813.992187 1.496094 1.953125 2.207032 2.878906 6.144531 7.972657 18.152344 7.972657 24.296875 0 21.484375-27.878906 63.941406-86.941406 63.941406-118.335937 0-20.746094-8.3125-39.542969-21.777344-53.269532zm0 0" fill="#fb8723"/><path d="m201.445312 76.074219c0 20.894531-16.9375 37.832031-37.832031 37.832031s-37.832031-16.9375-37.832031-37.832031 16.9375-37.832031 37.832031-37.832031 37.832031 16.9375 37.832031 37.832031zm0 0" fill="#f2f2f2"/><path d="m174.234375 39.765625c3.585937 5.78125 5.664063 12.601563 5.664063 19.90625 0 20.894531-16.9375 37.832031-37.832032 37.832031-3.6875 0-7.25-.539062-10.621094-1.523437 6.671876 10.757812 18.582032 17.925781 32.167969 17.925781 20.894531 0 37.832031-16.9375 37.832031-37.832031 0-17.207031-11.492187-31.71875-27.210937-36.308594zm0 0" fill="#dcdce2"/><path d="m512 125.605469c0 17.878906-24.183594 51.519531-36.417969 67.398437-3.5 4.539063-10.339843 4.539063-13.839843 0-12.234376-15.878906-36.417969-49.519531-36.417969-67.398437 0-23.933594 19.40625-43.335938 43.339843-43.335938 23.933594 0 43.335938 19.402344 43.335938 43.335938zm0 0" fill="#fc9842"/><path d="m499.597656 95.265625c1.648438 5.226563 2.539063 10.792969 2.539063 16.566406 0 20.632813-25.367188 57.796875-41.652344 79.527344.433594.566406.851563 1.113281 1.257813 1.640625 3.5 4.539062 10.339843 4.539062 13.839843 0 12.234375-15.875 36.417969-49.515625 36.417969-67.394531 0-11.816407-4.734375-22.523438-12.402344-30.339844zm0 0" fill="#fb8723"/><path d="m490.210938 125.308594c0 11.902344-9.648438 21.546875-21.546876 21.546875-11.902343 0-21.546874-9.644531-21.546874-21.546875 0-11.898438 9.644531-21.542969 21.546874-21.542969 11.898438 0 21.546876 9.644531 21.546876 21.542969zm0 0" fill="#f2f2f2"/><path d="m474.710938 104.632812c2.042968 3.292969 3.226562 7.175782 3.226562 11.335938 0 11.898438-9.648438 21.546875-21.546875 21.546875-2.101563 0-4.128906-.304687-6.046875-.867187 3.796875 6.125 10.582031 10.207031 18.320312 10.207031 11.898438 0 21.546876-9.644531 21.546876-21.546875 0-9.796875-6.546876-18.0625-15.5-20.675782zm0 0" fill="#dcdce2"/><path d="m86.675781 236.84375c0 17.878906-24.183593 51.519531-36.417969 67.398438-3.5 4.539062-10.339843 4.539062-13.839843 0-12.234375-15.878907-36.417969-49.519532-36.417969-67.398438 0-23.933594 19.402344-43.335938 43.335938-43.335938 23.933593 0 43.339843 19.402344 43.339843 43.335938zm0 0" fill="#fc9842"/><path d="m74.269531 206.503906c1.652344 5.226563 2.542969 10.792969 2.542969 16.566406 0 20.632813-25.367188 57.796876-41.652344 79.53125.433594.5625.851563 1.113282 1.257813 1.636719 3.5 4.542969 10.339843 4.542969 13.839843 0 12.234376-15.875 36.417969-49.515625 36.417969-67.394531 0-11.816406-4.734375-22.523438-12.40625-30.339844zm0 0" fill="#fb8723"/><path d="m64.882812 236.550781c0 11.898438-9.644531 21.542969-21.546874 21.542969-11.898438 0-21.546876-9.644531-21.546876-21.542969 0-11.902343 9.648438-21.546875 21.546876-21.546875 11.902343 0 21.546874 9.644532 21.546874 21.546875zm0 0" fill="#f2f2f2"/><path d="m49.386719 215.871094c2.042969 3.292968 3.226562 7.175781 3.226562 11.335937 0 11.902344-9.648437 21.546875-21.546875 21.546875-2.101562 0-4.128906-.304687-6.050781-.867187 3.800781 6.125 10.582031 10.207031 18.324219 10.207031 11.898437 0 21.542968-9.644531 21.542968-21.542969 0-9.800781-6.542968-18.066406-15.496093-20.679687zm0 0" fill="#dcdce2"/><path d="m388.988281 152.523438c0 17.878906-24.183593 51.519531-36.417969 67.398437-3.5 4.539063-10.339843 4.539063-13.839843 0-12.238281-15.878906-36.417969-49.519531-36.417969-67.398437 0-23.933594 19.402344-43.335938 43.335938-43.335938 23.9375 0 43.339843 19.402344 43.339843 43.335938zm0 0" fill="#fc9842"/><path d="m376.582031 122.183594c1.648438 5.230468 2.539063 10.796875 2.539063 16.570312 0 20.628906-25.363282 57.792969-41.648438 79.527344.429688.566406.851563 1.113281 1.257813 1.640625 3.5 4.539063 10.339843 4.539063 13.839843 0 12.234376-15.878906 36.417969-49.519531 36.417969-67.398437 0-11.8125-4.734375-22.519532-12.40625-30.339844zm0 0" fill="#fb8723"/><path d="m367.195312 152.230469c0 11.898437-9.648437 21.546875-21.546874 21.546875-11.898438 0-21.546876-9.648438-21.546876-21.546875 0-11.898438 9.648438-21.546875 21.546876-21.546875 11.898437 0 21.546874 9.648437 21.546874 21.546875zm0 0" fill="#f2f2f2"/><path d="m351.699219 131.550781c2.042969 3.292969 3.226562 7.175781 3.226562 11.339844 0 11.898437-9.648437 21.542969-21.546875 21.542969-2.101562 0-4.128906-.304688-6.050781-.867188 3.800781 6.128906 10.582031 10.210938 18.320313 10.210938 11.902343 0 21.546874-9.648438 21.546874-21.546875 0-9.796875-6.542968-18.066407-15.496093-20.679688zm0 0" fill="#dcdce2"/><path d="m443.832031 262.625c0 31.390625-42.457031 90.457031-63.941406 118.335938-6.144531 7.972656-18.152344 7.972656-24.296875 0-21.484375-27.878907-63.941406-86.945313-63.941406-118.335938 0-42.023438 34.066406-76.089844 76.089844-76.089844 42.023437 0 76.089843 34.066406 76.089843 76.089844zm0 0" fill="#fc9842"/><path d="m422.054688 209.351562c2.894531 9.183594 4.460937 18.953126 4.460937 29.089844 0 36.226563-44.535156 101.476563-73.128906 139.640625.757812.992188 1.496093 1.953125 2.207031 2.878907 6.144531 7.972656 18.152344 7.972656 24.296875 0 21.484375-27.878907 63.941406-86.945313 63.941406-118.335938 0-20.746094-8.3125-39.546875-21.777343-53.273438zm0 0" fill="#fb8723"/><path d="m405.574219 262.109375c0 20.890625-16.9375 37.828125-37.832031 37.828125-20.894532 0-37.832032-16.9375-37.832032-37.828125 0-20.894531 16.9375-37.832031 37.832032-37.832031 20.894531 0 37.832031 16.9375 37.832031 37.832031zm0 0" fill="#f2f2f2"/><path d="m378.363281 225.800781c3.585938 5.78125 5.660157 12.601563 5.660157 19.90625 0 20.894531-16.933594 37.832031-37.828126 37.832031-3.691406 0-7.25-.539062-10.621093-1.523437 6.671875 10.757813 18.578125 17.921875 32.167969 17.921875 20.890624 0 37.828124-16.933594 37.828124-37.828125 0-17.207031-11.488281-31.71875-27.207031-36.308594zm0 0" fill="#dcdce2"/></svg>