<svg height="512pt" viewBox="0 -47 512.001 512" width="512pt" xmlns="http://www.w3.org/2000/svg"><path d="m503 334.097656h-494c-4.972656 0-9-4.03125-9-9v-294.980468h512v294.980468c0 4.96875-4.03125 9-9 9zm0 0" fill="#bce8f1"/><path d="m441.976562 30.117188v264.4375c0 5.195312-4.210937 9.40625-9.40625 9.40625h-432.570312v20.730468c0 5.195313 4.210938 9.40625 9.40625 9.40625h493.1875c5.195312 0 9.40625-4.210937 9.40625-9.40625v-294.574218zm0 0" fill="#95dae8"/><path d="m0 33.640625h512v132.257813h-512zm0 0" fill="#def4f8"/><g fill="#607882"><path d="m45.4375 102.738281c-.507812-1.625-1.015625-3.246093-1.015625-5.476562 0-3.855469 3.449219-6.898438 7.203125-6.898438 5.476562 0 6.289062 2.941407 7.304688 7.203125l7.808593 32.460938h.207031l6.289063-29.519532c1.214844-5.785156 2.433594-10.347656 9.332031-10.144531 7-.203125 8.417969 4.261719 9.738282 10.144531l6.390624 29.519532h.203126l7.304687-32.460938c.910156-4.261718 1.824219-7.203125 7.304687-7.203125 3.753907 0 7.203126 3.042969 7.203126 6.898438 0 2.230469-.507813 3.851562-1.015626 5.476562l-10.855468 35.300781c-2.128906 7-3.753906 8.015626-9.636719 8.015626-6.1875 0-7.710937-1.828126-9.230469-7.710938l-7.304687-29.113281h-.203125l-7.304688 29.113281c-1.519531 5.882812-3.042968 7.710938-9.230468 7.710938-5.886719 0-7.507813-1.015626-9.640626-8.015626zm0 0"/><path d="m139.863281 102.738281c-.507812-1.625-1.015625-3.246093-1.015625-5.476562 0-3.855469 3.449219-6.898438 7.203125-6.898438 5.476563 0 6.289063 2.941407 7.304688 7.203125l7.808593 32.460938h.203126l6.289062-29.519532c1.21875-5.785156 2.4375-10.347656 9.335938-10.144531 6.996093-.203125 8.417968 4.261719 9.738281 10.144531l6.390625 29.519532h.203125l7.304687-32.460938c.910156-4.261718 1.824219-7.203125 7.304688-7.203125 3.75 0 7.199218 3.042969 7.199218 6.898438 0 2.230469-.503906 3.851562-1.015624 5.476562l-10.851563 35.300781c-2.128906 7-3.753906 8.015626-9.636719 8.015626-6.1875 0-7.710937-1.828126-9.230468-7.710938l-7.304688-29.113281h-.203125l-7.304687 29.113281c-1.523438 5.882812-3.046876 7.710938-9.234376 7.710938-5.882812 0-7.503906-1.015626-9.636718-8.015626zm0 0"/><path d="m234.285156 102.738281c-.507812-1.625-1.015625-3.246093-1.015625-5.476562 0-3.855469 3.453125-6.898438 7.207031-6.898438 5.476563 0 6.289063 2.941407 7.300782 7.203125l7.8125 32.460938h.203125l6.289062-29.519532c1.21875-5.785156 2.4375-10.347656 9.332031-10.144531 7-.203125 8.421876 4.261719 9.738282 10.144531l6.394531 29.519532h.199219l7.308594-32.460938c.910156-4.261718 1.824218-7.203125 7.304687-7.203125 3.75 0 7.199219 3.042969 7.199219 6.898438 0 2.230469-.503906 3.851562-1.011719 5.476562l-10.855469 35.300781c-2.132812 7-3.753906 8.015626-9.636718 8.015626-6.191407 0-7.710938-1.828126-9.234376-7.710938l-7.304687-29.113281h-.199219l-7.304687 29.113281c-1.523438 5.882812-3.042969 7.710938-9.234375 7.710938-5.882813 0-7.503906-1.015626-9.636719-8.015626zm0 0"/></g><path d="m441.976562 33.640625h70.023438v132.257813h-70.023438zm0 0" fill="#bce8f1"/><path d="m512 67.527344h-512v-58.527344c0-4.96875 4.027344-9 9-9h494c4.972656 0 9 4.03125 9 9zm0 0" fill="#607882"/><path d="m502.59375 0h-60.617188v67.527344h70.023438v-58.121094c0-5.195312-4.210938-9.40625-9.40625-9.40625zm0 0" fill="#495959"/><path d="m488.492188 303.054688c0 63.316406-51.328126 114.644531-114.644532 114.644531s-114.644531-51.328125-114.644531-114.644531c0-63.316407 51.328125-114.644532 114.644531-114.644532s114.644532 51.328125 114.644532 114.644532zm0 0" fill="#eec707"/><path d="m421.707031 198.851562c26.667969 20.992188 43.792969 53.566407 43.792969 90.136719 0 63.316407-51.328125 114.644531-114.644531 114.644531-17.082031 0-33.292969-3.742187-47.859375-10.441406 19.503906 15.347656 44.105468 24.507813 70.851562 24.507813 63.316406 0 114.644532-51.328125 114.644532-114.644531 0-46.234376-27.371094-86.066407-66.785157-104.203126zm0 0" fill="#fba72d"/><path d="m60.152344 34.121094c0 8.6875-7.042969 15.730468-15.730469 15.730468s-15.730469-7.042968-15.730469-15.730468 7.042969-15.730469 15.730469-15.730469 15.730469 7.042969 15.730469 15.730469zm0 0" fill="#fc9842"/><path d="m104.910156 34.121094c0 8.6875-7.042968 15.730468-15.730468 15.730468s-15.730469-7.042968-15.730469-15.730468 7.042969-15.730469 15.730469-15.730469 15.730468 7.042969 15.730468 15.730469zm0 0" fill="#ffe046"/><path d="m151.144531 34.121094c0 8.6875-7.042969 15.730468-15.730469 15.730468s-15.730468-7.042968-15.730468-15.730468 7.042968-15.730469 15.730468-15.730469 15.730469 7.042969 15.730469 15.730469zm0 0" fill="#7cd2e3"/><path d="m356.371094 358.925781c-.097656 0-.195313 0-.296875-.003906-4.746094-.082031-9.25-2.117187-12.449219-5.625l-46.8125-51.375c-6.414062-7.039063-5.90625-17.945313 1.132812-24.359375 7.039063-6.414062 17.945313-5.90625 24.359376 1.132812l34.496093 37.855469 102.621094-105.148437c6.652344-6.816406 17.570313-6.945313 24.386719-.296875 6.8125 6.652343 6.949218 17.570312.296875 24.386719l-115.394531 118.234374c-3.246094 3.328126-7.699219 5.199219-12.339844 5.199219zm0 0" fill="#f0feff"/><path d="m483.808594 211.105469c-6.386719-6.230469-16.371094-6.507813-23.078125-.914063.355469.292969.703125.589844 1.039062.914063 6.8125 6.652343 6.945313 17.570312.296875 24.386719l-115.394531 118.234374c-.414063.425782-.851563.824219-1.304687 1.203126 2.996093 2.492187 6.765624 3.925781 10.707031 3.992187.101562 0 .199219.003906.296875.003906 4.640625 0 9.09375-1.875 12.339844-5.203125l115.394531-118.234375c6.648437-6.8125 6.515625-17.730469-.296875-24.382812zm0 0" fill="#def4f8"/></svg>