<svg height="512pt" viewBox="0 -41 512 511" width="512pt" xmlns="http://www.w3.org/2000/svg"><path d="m420.972656 214.824219c0 114.128906-92.515625 206.648437-206.644531 206.648437s-206.644531-92.519531-206.644531-206.648437c0-114.125 92.515625-206.644531 206.644531-206.644531s206.644531 92.519531 206.644531 206.644531zm0 0" fill="#bce8f1"/><path d="m286.921875 21.304688c46.269531 37.894531 75.800781 95.46875 75.800781 159.941406 0 114.128906-92.519531 206.648437-206.648437 206.648437-25.546875 0-50.003907-4.648437-72.589844-13.125 35.632813 29.183594 81.191406 46.703125 130.84375 46.703125 114.125 0 206.644531-92.519531 206.644531-206.648437 0-88.578125-55.738281-164.128907-134.050781-193.519531zm0 0" fill="#95dae8"/><path d="m428.65625 214.828125c0-.035156-.003906-.070313-.003906-.105469-.054688-118.132812-96.179688-214.222656-214.324219-214.222656-118.152344 0-214.28125 96.105469-214.32421875 214.25 0 .027344-.00390625.050781-.00390625.078125s.00390625.054687.00390625.082031c.04687495 118.140625 96.17187475 214.238282 214.32421875 214.238282 118.140625 0 214.265625-96.085938 214.324219-214.210938 0-.039062.003906-.074219.003906-.109375zm-15.523438-7.679687h-83.902343c-2.121094-75.761719-35.273438-145.691407-88.917969-189.59375 94.992188 12.445312 169.101562 92.15625 172.820312 189.59375zm-206.484374 0h-91.855469c2.222656-75.136719 36.699219-143.984376 91.855469-184.332032zm0 15.359374v184.464844c-55.1875-40.371094-89.671876-109.277344-91.863282-184.464844zm15.359374 0h91.859376c-2.183594 75.1875-36.671876 144.089844-91.859376 184.464844zm0-15.359374v-184.332032c55.15625 40.347656 89.632813 109.195313 91.855469 184.332032zm-33.632812-189.597657c-53.65625 43.898438-86.824219 113.824219-88.945312 189.597657h-83.90625c3.71875-97.449219 77.84375-177.164063 172.851562-189.597657zm-172.851562 204.957031h83.902343c2.085938 75.714844 35.148438 145.621094 88.703125 189.554688-94.890625-12.535156-168.886718-92.191406-172.605468-189.554688zm224.957031 189.5625c53.570312-43.933593 86.664062-113.832031 88.75-189.5625h83.902343c-3.71875 97.378907-77.742187 177.046876-172.652343 189.5625zm0 0" fill="#7cd2e3"/><path d="m324.15625 342.5625h53.855469v48.015625h-53.855469zm0 0" fill="#738c96"/><path d="m358.871094 342.5625h19.140625v48.015625h-19.140625zm0 0" fill="#607882"/><path d="m410.339844 404.851562h-118.511719c-4.542969 0-8.222656-3.679687-8.222656-8.222656v-3.988281c0-4.542969 3.679687-8.226563 8.222656-8.226563h118.511719c4.542968 0 8.226562 3.683594 8.226562 8.226563v3.988281c0 4.542969-3.683594 8.222656-8.226562 8.222656zm0 0" fill="#738c96"/><path d="m408.347656 384.414062h-9.964844c.042969.371094.066407.75.066407 1.136719 0 5.640625-4.574219 10.21875-10.21875 10.21875h-104.558594c.5625 5.109375 4.890625 9.082031 10.152344 9.082031h114.523437c5.640625 0 10.21875-4.574218 10.21875-10.21875 0-5.644531-4.578125-10.21875-10.21875-10.21875zm0 0" fill="#607882"/><path d="m485.671875 338.277344h-269.175781c-7.730469 0-14-6.265625-14-14v-166.65625c0-7.730469 6.269531-14 14-14h269.175781c7.730469 0 14 6.269531 14 14v166.65625c0 7.734375-6.269531 14-14 14zm0 0" fill="#def4f8"/><path d="m490.589844 143.621094h-40.878906v151.207031c0 5.015625-4.066407 9.082031-9.085938 9.082031h-238.128906v25.285156c0 5.015626 4.066406 9.082032 9.085937 9.082032h279.007813c5.015625 0 9.082031-4.066406 9.082031-9.082032v-176.488281c0-5.015625-4.066406-9.085937-9.082031-9.085937zm0 0" fill="#bce8f1"/><path d="m491.238281 350.605469h-280.304687c-11.46875 0-20.765625-9.292969-20.765625-20.761719v-177.785156c0-11.46875 9.296875-20.761719 20.765625-20.761719h280.304687c11.464844 0 20.761719 9.292969 20.761719 20.761719v177.785156c0 11.46875-9.296875 20.761719-20.761719 20.761719zm-269.925781-24.65625h259.542969c3.582031 0 6.488281-2.902344 6.488281-6.488281v-157.023438c0-3.582031-2.90625-6.488281-6.488281-6.488281h-259.542969c-3.582031 0-6.488281 2.90625-6.488281 6.488281v157.023438c0 3.585937 2.90625 6.488281 6.488281 6.488281zm0 0" fill="#607882"/><path d="m496.429688 131.949219v191.277343c0 8.3125-6.742188 15.050782-15.054688 15.050782h-286.015625c-1.207031 0-2.386719-.109375-3.539063-.304688 3.164063 7.425782 10.527344 12.632813 19.109376 12.632813h280.304687c11.46875 0 20.765625-9.296875 20.765625-20.761719v-177.785156c0-9.675782-6.617188-17.804688-15.570312-20.109375zm0 0" fill="#495959"/><path d="m373.996094 229.070312h-11.210938c-1.246094-4.980468-3.210937-9.671874-5.785156-13.960937l7.929688-7.925781c1.566406-1.570313 1.566406-4.113282 0-5.679688l-12.140626-12.136718c-1.566406-1.570313-4.109374-1.570313-5.679687 0l-7.925781 7.925781c-4.289063-2.570313-8.980469-4.539063-13.960938-5.785157v-11.207031c0-2.21875-1.796875-4.019531-4.015625-4.019531h-17.164062c-2.21875 0-4.015625 1.796875-4.015625 4.019531v11.207031c-4.980469 1.246094-9.671875 3.214844-13.960938 5.785157l-7.925781-7.925781c-1.570313-1.570313-4.113281-1.570313-5.679687 0l-12.136719 12.136718c-1.570313 1.566406-1.570313 4.109375 0 5.679688l7.925781 7.925781c-2.570312 4.289063-4.539062 8.980469-5.785156 13.960937h-11.207032c-2.21875 0-4.019531 1.796876-4.019531 4.015626v17.164062c0 2.21875 1.796875 4.019531 4.019531 4.019531h11.207032c1.246094 4.976563 3.214844 9.667969 5.785156 13.957031l-7.925781 7.929688c-1.570313 1.566406-1.570313 4.109375 0 5.679688l12.136719 12.136718c1.566406 1.570313 4.109374 1.570313 5.679687 0l7.925781-7.925781c4.289063 2.570313 8.984375 4.539063 13.960938 5.785156v11.207031c0 2.21875 1.796875 4.019532 4.015625 4.019532h17.164062c2.21875 0 4.015625-1.800782 4.015625-4.019532v-11.207031c4.980469-1.246093 9.671875-3.214843 13.960938-5.785156l7.925781 7.925781c1.570313 1.570313 4.113281 1.570313 5.679687 0l12.140626-12.136718c1.566406-1.570313 1.566406-4.113282 0-5.679688l-7.929688-7.929688c2.570312-4.289062 4.539062-8.980468 5.785156-13.957031h11.210938c2.21875 0 4.015625-1.800781 4.015625-4.019531v-17.164062c0-2.21875-1.796875-4.015626-4.015625-4.015626zm-61.371094 33.285157c-11.421875 0-20.683594-9.261719-20.683594-20.6875 0-11.421875 9.261719-20.683594 20.683594-20.683594 11.425781 0 20.6875 9.261719 20.6875 20.683594 0 11.425781-9.261719 20.6875-20.6875 20.6875zm0 0" fill="#eec707"/><path d="m373.996094 229.070312h-11.210938c-1.25-4.976562-3.214844-9.667968-5.789062-13.957031l7.933594-7.929687c1.566406-1.570313 1.566406-4.113282 0-5.679688l-12.136719-12.140625c-1.570313-1.566406-4.113281-1.566406-5.679688 0l-7.9375 7.9375c-4.339843-2.605469-9.09375-4.59375-14.144531-5.835937 13.117188 9.378906 21.671875 24.726562 21.671875 42.078125 0 28.5625-23.152344 51.714843-51.710937 51.714843-4.277344 0-8.433594-.53125-12.40625-1.511718 5.183593 3.710937 11.078124 6.480468 17.441406 8.078125v11.214843c0 2.21875 1.796875 4.015626 4.015625 4.015626h17.164062c2.21875 0 4.015625-1.796876 4.015625-4.015626v-11.210937c4.980469-1.246094 9.671875-3.214844 13.960938-5.785156l7.925781 7.929687c1.570313 1.566406 4.113281 1.566406 5.679687 0l12.140626-12.136718c1.566406-1.570313 1.566406-4.113282 0-5.683594l-7.929688-7.925782c2.570312-4.289062 4.539062-8.984374 5.785156-13.960937h11.210938c2.21875 0 4.015625-1.796875 4.015625-4.015625v-17.164062c0-2.21875-1.796875-4.015626-4.015625-4.015626zm0 0" fill="#fba72d"/></svg>